<svg xmlns="http://www.w3.org/2000/svg" viewBox="0 0 20 20" width="20" height="20">
<g>
	<polygon points="14.2,5.2 14.2,5.2 14.2,5.4"/>
	<path d="M14.8,5.8c0-0.1,0-0.2,0-0.2h0c0-0.1-0.1-0.2-0.1-0.2c-0.1-0.1-0.1-0.1-0.2-0.1v0c-0.1,0-0.2-0.1-0.3-0.1
		l0,0.3l0,0l0,0l0-0.3c0,0,0,0,0,0H5.8c-0.4,0-0.7,0.3-0.7,0.7s0.3,0.7,0.7,0.7h6.7l-7.2,7.2c-0.3,0.3-0.3,0.7,0,0.9
		c0.3,0.3,0.7,0.3,0.9,0l7.2-7.2v6.7c0,0.4,0.3,0.7,0.7,0.7c0.4,0,0.7-0.3,0.7-0.7L14.8,5.8C14.8,5.8,14.8,5.8,14.8,5.8
		C14.8,5.8,14.8,5.8,14.8,5.8C14.8,5.8,14.8,5.8,14.8,5.8z M14.4,5.4L14.4,5.4L14.4,5.4L14.4,5.4L14.4,5.4z"/>
</g>
</svg>
