<svg width="20" height="20" viewBox="0 0 20 20" xmlns="http://www.w3.org/2000/svg">
<path d="M10.1169 4.04783C10.0517 3.98373 9.94691 3.98406 9.88215 4.04882C9.81706 4.1139 9.81706 4.21943 9.88215 4.28452L15.431 9.83333H4.16667C4.07462 9.83333 4 9.90795 4 10C4 10.092 4.07462 10.1667 4.16667 10.1667H15.431L9.88215 15.7155C9.81706 15.7806 9.81706 15.8861 9.88215 15.9512C9.94724 16.0163 10.0528 16.0163 10.1179 15.9512L15.9512 10.1179C15.9628 10.1062 15.9722 10.0936 15.9795 10.0803L10.1169 4.04783ZM16.4494 9.74493C16.4684 9.79072 16.4824 9.839 16.4908 9.88903L16.5 9.89853V10C16.5 10.0106 16.4997 10.0213 16.4992 10.0319C16.4956 10.1078 16.479 10.1834 16.4494 10.2551C16.4167 10.334 16.3683 10.4078 16.3047 10.4714L10.4714 16.3047C10.2111 16.5651 9.78894 16.5651 9.52859 16.3047C9.26825 16.0444 9.26825 15.6223 9.5286 15.3619L14.2239 10.6667H4.16667C3.79848 10.6667 3.5 10.3682 3.5 10C3.5 9.63181 3.79848 9.33333 4.16667 9.33333H14.2239L9.5286 4.63807C9.26825 4.37772 9.26825 3.95561 9.5286 3.69526C9.78894 3.43491 10.2111 3.43491 10.4714 3.69526M16.4494 9.74493C16.4494 9.74499 16.4494 9.74487 16.4494 9.74493L16.3789 9.77394Z"/>
</svg>
