<svg width="24" height="24" viewBox="0 0 24 24" xmlns="http://www.w3.org/2000/svg">
<path d="M12.3536 4.64645C12.1583 4.45118 11.8417 4.45118 11.6464 4.64645C11.4512 4.84171 11.4512 5.15829 11.6464 5.35355L17.7929 11.5H5C4.72386 11.5 4.5 11.7239 4.5 12C4.5 12.2761 4.72386 12.5 5 12.5H17.7929L11.6464 18.6464C11.4512 18.8417 11.4512 19.1583 11.6464 19.3536C11.8417 19.5488 12.1583 19.5488 12.3536 19.3536L19.3536 12.3536C19.4015 12.3056 19.4377 12.2504 19.4621 12.1914C19.4842 12.1378 19.4967 12.0811 19.4994 12.024C19.4998 12.016 19.5 12.008 19.5 12"/>
<path d="M19.4621 11.8086C19.4377 11.7496 19.4015 11.6944 19.3536 11.6464L12.3536 4.64645"/>
<path d="M19.4621 11.8086C19.4861 11.8667 19.4996 11.9303 19.5 11.997Z"/>
</svg>
