<svg xmlns="http://www.w3.org/2000/svg" viewBox="0 0 20 20" width="20" height="20">
<path d="M15.1,7.5c0-2.8-2.3-5.1-5.1-5.1S4.9,4.7,4.9,7.5c0,1.4,0.6,2.8,1.6,3.7l-0.7,5.4c0,0.3,0.1,0.7,0.4,0.9
	c0.3,0.2,0.7,0.2,1,0l2.9-1.7l2.9,1.7c0.3,0.2,0.7,0.2,1,0c0.3-0.2,0.4-0.5,0.4-0.9l-0.7-5.4C14.5,10.3,15.1,8.9,15.1,7.5z M10,4.2
	c1.8,0,3.3,1.5,3.3,3.3s-1.5,3.3-3.3,3.3S6.8,9.3,6.8,7.5S8.2,4.2,10,4.2z M8.2,12.3c0.6,0.2,1.2,0.3,1.8,0.3c0.6,0,1.2-0.1,1.8-0.3
	l0.4,2.7l-1.7-1c-0.3-0.2-0.6-0.2-0.9,0l-1.7,1L8.2,12.3z M12.8,15.9L12.8,15.9L12.8,15.9L12.8,15.9z M10,15.2L10,15.2L10,15.2
	L10,15.2L10,15.2z"/>
</svg>
