<svg xmlns="http://www.w3.org/2000/svg" width="20" height="20" viewBox="0 0 20 20" fill="none">
  <path fill="#0080FF" fill-rule="evenodd" d="M10.5 5.263v10.621A7.974 7.974 0 0 1 15 14.5a7.99 7.99 0 0 1 2 .252V3.915a6.998 6.998 0 0 0-2-.29 6.972 6.972 0 0 0-4.5 1.638ZM15 14.5v.5-.5Zm-5.5 1.385V5.263A6.973 6.973 0 0 0 5 3.625c-.696 0-1.367.101-2 .29v10.837a7.992 7.992 0 0 1 2-.252v.5-.5c1.669 0 3.218.511 4.5 1.385ZM10 4.379a7.972 7.972 0 0 1 5-1.754c.934 0 1.832.16 2.667.455a.5.5 0 0 1 .333.472v11.875a.5.5 0 0 1-.666.471A6.988 6.988 0 0 0 15 15.5h-.002a6.973 6.973 0 0 0-4.665 1.782.5.5 0 0 1-.667 0A6.972 6.972 0 0 0 5 15.5c-.795 0-1.584.134-2.334.398A.5.5 0 0 1 2 15.427V3.552a.5.5 0 0 1 .333-.472A7.979 7.979 0 0 1 5 2.625a7.973 7.973 0 0 1 5 1.754ZM5 2.625v.5-.5Zm10 0v.5-.5Z" clip-rule="evenodd"/>
</svg>
