<svg xmlns="http://www.w3.org/2000/svg" width="48" height="48" viewBox="0 0 48 48">
  <path d="M14 7.5a2.5 2.5 0 0 0-2.5 2.5v30.5h25V10A2.5 2.5 0 0 0 34 7.5H14Zm25.5 33V10A5.5 5.5 0 0 0 34 4.5H14A5.5 5.5 0 0 0 8.5 10v30.5H6a1.5 1.5 0 0 0 0 3h36a1.5 1.5 0 0 0 0-3h-2.5ZM16.5 16a1.5 1.5 0 0 1 1.5-1.5h2a1.5 1.5 0 0 1 0 3h-2a1.5 1.5 0 0 1-1.5-1.5Zm10 0a1.5 1.5 0 0 1 1.5-1.5h2a1.5 1.5 0 0 1 0 3h-2a1.5 1.5 0 0 1-1.5-1.5Zm-10 8a1.5 1.5 0 0 1 1.5-1.5h2a1.5 1.5 0 0 1 0 3h-2a1.5 1.5 0 0 1-1.5-1.5Zm10 0a1.5 1.5 0 0 1 1.5-1.5h2a1.5 1.5 0 0 1 0 3h-2a1.5 1.5 0 0 1-1.5-1.5Zm-10 8a1.5 1.5 0 0 1 1.5-1.5h2a1.5 1.5 0 0 1 0 3h-2a1.5 1.5 0 0 1-1.5-1.5Zm10 0a1.5 1.5 0 0 1 1.5-1.5h2a1.5 1.5 0 0 1 0 3h-2a1.5 1.5 0 0 1-1.5-1.5Z"/>
</svg>
