<svg xmlns="http://www.w3.org/2000/svg" viewBox="0 0 20 20" width="20" height="20">
<g>
	<path d="M14.2,1.4H5.8c-2.4,0-4.4,2-4.4,4.4v8.3c0,2.4,2,4.4,4.4,4.4h8.3c2.4,0,4.4-2,4.4-4.4V5.8
		C18.6,3.4,16.6,1.4,14.2,1.4z M17.3,14.2c0,1.7-1.4,3.1-3.1,3.1H5.8c-1.7,0-3.1-1.4-3.1-3.1V5.8c0-1.7,1.4-3.1,3.1-3.1h8.3
		c1.7,0,3.1,1.4,3.1,3.1V14.2z"/>
	<path d="M8.8,11.3c-0.3-0.3-0.7-0.3-0.9,0L7.1,12l-0.7-0.7c-0.3-0.3-0.7-0.3-0.9,0c-0.3,0.3-0.3,0.7,0,0.9l0.7,0.7
		l-0.7,0.7c-0.3,0.3-0.3,0.7,0,0.9c0.3,0.3,0.7,0.3,0.9,0l0.7-0.7l0.7,0.7c0.3,0.3,0.7,0.3,0.9,0c0.3-0.3,0.3-0.7,0-0.9l-0.7-0.7
		l0.7-0.7C9,12,9,11.5,8.8,11.3z M6.5,12.9L6.5,12.9L6.5,12.9L6.5,12.9L6.5,12.9z M7.7,12.9L7.7,12.9L7.7,12.9L7.7,12.9L7.7,12.9z"
		/>
	<path d="M14.6,6.4h-1v-1c0-0.4-0.3-0.7-0.7-0.7c-0.4,0-0.7,0.3-0.7,0.7v1h-1c-0.4,0-0.7,0.3-0.7,0.7
		c0,0.4,0.3,0.7,0.7,0.7h1v1c0,0.4,0.3,0.7,0.7,0.7c0.4,0,0.7-0.3,0.7-0.7v-1h1c0.4,0,0.7-0.3,0.7-0.7C15.3,6.7,15,6.4,14.6,6.4z"/>
	<path d="M14.6,11.4h-3.3c-0.4,0-0.7,0.3-0.7,0.7c0,0.4,0.3,0.7,0.7,0.7h3.3c0.4,0,0.7-0.3,0.7-0.7
		C15.3,11.7,15,11.4,14.6,11.4z"/>
	<path d="M8.8,6.4H5.4c-0.4,0-0.7,0.3-0.7,0.7c0,0.4,0.3,0.7,0.7,0.7h3.3c0.4,0,0.7-0.3,0.7-0.7
		C9.4,6.7,9.1,6.4,8.8,6.4z"/>
	<path d="M14.6,13.1h-3.3c-0.4,0-0.7,0.3-0.7,0.7c0,0.4,0.3,0.7,0.7,0.7h3.3c0.4,0,0.7-0.3,0.7-0.7
		C15.3,13.4,15,13.1,14.6,13.1z"/>
</g>
</svg>
