<svg xmlns="http://www.w3.org/2000/svg" viewBox="0 0 20 20" width="20" height="20">
<path d="M15.7,2.7h-1.8v-1c0-0.4-0.3-0.7-0.7-0.7c-0.4,0-0.7,0.3-0.7,0.7v1H7.4v-1C7.4,1.3,7.1,1,6.7,1
	C6.4,1,6.1,1.3,6.1,1.7v1H4.3C3,2.7,2,3.7,2,5v11.7C2,18,3,19,4.3,19h11.4c1.3,0,2.3-1,2.3-2.3V5C18,3.7,17,2.7,15.7,2.7z
	 M15.7,17.7H4.3c-0.5,0-1-0.4-1-1V9h13.4v7.7C16.7,17.2,16.3,17.7,15.7,17.7z M16.7,7.7H3.3V5c0-0.6,0.4-1,1-1h1.8v1
	c0,0.4,0.3,0.7,0.7,0.7c0.4,0,0.7-0.3,0.7-0.7V4h5.2v1c0,0.4,0.3,0.7,0.7,0.7c0.4,0,0.7-0.3,0.7-0.7V4h1.8c0.5,0,1,0.4,1,1V7.7z"/>
</svg>
