<svg xmlns="http://www.w3.org/2000/svg" width="48" height="48" viewBox="0 0 48 48" fill="none"><path fill="#0080FF" fill-rule="evenodd" d="M35.8 15.918H12.2a3 3 0 0 0-3 3v16.88a3 3 0 0 0 3 3h23.6a3 3 0 0 0 3-3v-16.88a3 3 0 0 0-3-3Zm-23.6-2a5 5 0 0 0-5 5v16.88a5 5 0 0 0 5 5h23.6a5 5 0 0 0 5-5v-16.88a5 5 0 0 0-5-5H12.2Z" clip-rule="evenodd"/><path fill="#0080FF" fill-rule="evenodd" d="M18.96 9.2a3.04 3.04 0 0 0-3.04 3.04v1.36h16.16v-1.36a3.04 3.04 0 0 0-3.04-3.04H18.96Zm15.12 3.04a5.04 5.04 0 0 0-5.04-5.04H18.96a5.04 5.04 0 0 0-5.04 5.04v3.36h20.16v-3.36Z" clip-rule="evenodd"/></svg>
