<svg xmlns="http://www.w3.org/2000/svg" width="20" height="20" viewBox="0 0 20 20" fill="none">
  <path fill="#0080FF" fill-rule="evenodd" d="M14.167 3.751a2.083 2.083 0 1 0 0 4.167 2.083 2.083 0 0 0 0-4.167ZM11.25 5.835a2.917 2.917 0 1 1 5.833 0 2.917 2.917 0 0 1-5.833 0ZM5.835 12.083a2.083 2.083 0 1 0 0 4.167 2.083 2.083 0 0 0 0-4.167Zm-2.917 2.084a2.917 2.917 0 1 1 5.833 0 2.917 2.917 0 0 1-5.833 0ZM2.918 3.335c0-.23.187-.417.417-.417h5c.23 0 .416.187.416.417V7.5a1.25 1.25 0 0 1-1.25 1.25H4.168a1.25 1.25 0 0 1-1.25-1.25V3.335Zm.833.416v3.75a.417.417 0 0 0 .417.417h3.333a.417.417 0 0 0 .417-.417v-3.75H3.751Zm7.5 7.917c0-.23.187-.417.417-.417h5c.23 0 .417.187.417.417v4.167a1.25 1.25 0 0 1-1.25 1.25H12.5a1.25 1.25 0 0 1-1.25-1.25v-4.167Zm.834.417v3.75a.417.417 0 0 0 .416.416h3.334a.417.417 0 0 0 .416-.416v-3.75h-4.166Z" clip-rule="evenodd"/>
</svg>
