<svg xmlns="http://www.w3.org/2000/svg" viewBox="0 0 20 20" width="20" height="20">
	<path d="M18.2,9.1c-0.1-1.9-0.9-3.7-2.3-5c-1.3-1.3-3.1-2.1-5-2.3c0,0,0,0,0,0h-0.4v0C9.2,1.8,8,2.1,7,2.7l0,0
		c0,0,0,0,0,0c0,0,0,0,0,0l0,0C5.7,3.3,4.6,4.3,3.8,5.5C3.1,6.7,2.7,8.1,2.7,9.6h0v0c0,0,0,0,0,0c0,0,0,0,0,0l0,0
		c0,1.1,0.2,2.2,0.7,3.2l-1.5,4.5c-0.1,0.2,0,0.5,0.2,0.7c0.2,0.2,0.4,0.2,0.7,0.2l4.5-1.5c1,0.5,2.1,0.7,3.2,0.7v0c0,0,0,0,0,0l0,0
		h0l0,0c0,0,0,0,0,0c0,0,0,0,0,0v0c1.4,0,2.8-0.4,4.1-1.2c1.2-0.8,2.2-1.8,2.9-3.1l0,0c0,0,0,0,0,0c0,0,0,0,0,0l0,0
		c0.5-1.1,0.8-2.3,0.8-3.5h0c0,0,0,0,0,0v0L18.2,9.1C18.2,9.2,18.2,9.1,18.2,9.1z M7.2,16.4L7.2,16.4L7.2,16.4L7.2,16.4z M2.9,9.6
		L2.9,9.6L2.9,9.6L2.9,9.6z M16.4,12.6L16.4,12.6l-0.2-0.1l0,0l0,0l0,0L16.4,12.6L16.4,12.6l-0.2-0.1c-0.5,1.1-1.4,2-2.4,2.6
		c-1,0.6-2.2,1-3.4,1l0,0.3l0,0l0,0l0-0.3h0l0,0.3l0,0l0-0.2h0c-1,0-2-0.2-2.9-0.7c-0.2-0.1-0.3-0.1-0.5,0l-3.5,1.2L4.7,13
		c0.1-0.2,0-0.4,0-0.5C4.2,11.6,4,10.6,4,9.6v0v0v0c0-1.2,0.3-2.4,1-3.4c0.6-1,1.5-1.8,2.6-2.4l0,0l0,0c0.9-0.4,1.9-0.7,2.9-0.7h0
		l0-0.2l0,0l0,0l0,0.3h0h0h0.4c1.6,0.1,3,0.8,4.2,1.9s1.8,2.6,1.9,4.2v0.4v0v0v0c0,1-0.2,2-0.7,2.9L16.4,12.6L16.4,12.6z M17.1,9.2
		L17.1,9.2L17.1,9.2L17.1,9.2z M3.6,12.8L3.6,12.8L3.6,12.8L3.6,12.8z M10.4,2.1L10.4,2.1L10.4,2.1L10.4,2.1z"/>
</svg>
