<svg width="34" height="34" viewBox="0 0 34 34" xmlns="http://www.w3.org/2000/svg">
<circle cx="3.2334" cy="12.0333" r="3" fill="#0B41BF"/>
<path fill-rule="evenodd" clip-rule="evenodd" d="M10.5003 18.8333C11.0894 18.8333 11.5669 19.3109 11.5669 19.9C11.5669 21.52 12.8802 22.8333 14.5003 22.8333H19.5003C21.1203 22.8333 22.4336 21.52 22.4336 19.9C22.4336 19.3109 22.9112 18.8333 23.5003 18.8333C24.0894 18.8333 24.5669 19.3109 24.5669 19.9C24.5669 22.6982 22.2985 24.9667 19.5003 24.9667H14.5003C11.702 24.9667 9.43359 22.6982 9.43359 19.9C9.43359 19.3109 9.91116 18.8333 10.5003 18.8333Z"/>
<circle cx="30.7666" cy="12.0333" r="3"/>
</svg>
