<svg xmlns="http://www.w3.org/2000/svg" viewBox="0 0 44 44" width="44" height="44">
<path d="M41.4,19.2l-2.5-2.7c-0.7-0.7-1.1-1.7-1.1-2.6l-0.1-3.7c-0.1-2.1-1.8-3.8-3.9-3.9l-3.7-0.1
	c-1,0-1.9-0.4-2.6-1.1l-2.7-2.5c-1.5-1.5-4-1.5-5.5,0l-2.7,2.5c-0.7,0.7-1.7,1.1-2.6,1.1l-3.7,0.1c-2.1,0.1-3.8,1.8-3.9,3.9
	l-0.1,3.7c0,1-0.4,1.9-1.1,2.6l-2.5,2.7c-1.5,1.5-1.5,4,0,5.5l2.5,2.7c0.7,0.7,1.1,1.7,1.1,2.6l0.1,3.7c0.1,2.1,1.8,3.8,3.9,3.9
	l3.7,0.1c1,0,1.9,0.4,2.6,1.1l2.7,2.5c1.5,1.5,4,1.5,5.5,0l2.7-2.5c0.7-0.7,1.7-1.1,2.6-1.1l3.7-0.1c2.1-0.1,3.8-1.8,3.9-3.9
	l0.1-3.7c0-1,0.4-1.9,1.1-2.6l2.5-2.7C42.9,23.2,42.9,20.8,41.4,19.2z M29.3,17.6l-9.2,9.2c-0.4,0.4-0.9,0.4-1.3,0l-4.2-4.2
	c-0.4-0.4-0.4-0.9,0-1.3c0.4-0.4,0.9-0.4,1.3,0l3.5,3.5l8.5-8.5c0.4-0.4,0.9-0.4,1.3,0C29.7,16.7,29.7,17.3,29.3,17.6z"/>
</svg>
