<svg xmlns="http://www.w3.org/2000/svg" width="48" height="48" viewBox="0 0 48 48" fill="none"><path fill="#0080FF" fill-rule="evenodd" d="M42.286 25.285a1 1 0 0 1 1 1v6.857c0 1.14-.672 2.184-1.562 3.044-.914.883-2.189 1.704-3.703 2.406C34.986 40 30.84 41 26.286 41c-4.556 0-8.7-1-11.734-2.407-1.515-.702-2.79-1.523-3.703-2.405-.891-.861-1.563-1.905-1.563-3.045v-5.714a1 1 0 1 1 2 0v5.714c0 .346.224.902.952 1.606.706.682 1.774 1.39 3.155 2.03 2.757 1.278 6.612 2.221 10.893 2.221 4.281 0 8.137-.943 10.893-2.221 1.381-.64 2.449-1.348 3.155-2.03.728-.704.952-1.26.952-1.606v-6.857a1 1 0 0 1 1-1Z" clip-rule="evenodd"/><path fill="#0080FF" fill-rule="evenodd" d="M35.556 20.848a1 1 0 0 1 1.293-.574c1.842.709 3.403 1.587 4.523 2.563 1.095.953 1.914 2.133 1.914 3.445 0 1.172-.657 2.235-1.56 3.113-.917.893-2.198 1.706-3.713 2.393-3.038 1.376-7.18 2.319-11.727 2.319-3.727 0-7.177-.633-9.968-1.616-2.755-.97-4.996-2.326-6.159-3.868a1 1 0 0 1 1.598-1.204c.815 1.082 2.62 2.268 5.225 3.186 2.57.904 5.794 1.502 9.304 1.502 4.29 0 8.147-.893 10.901-2.14 1.38-.626 2.443-1.322 3.144-2.005.717-.697.955-1.275.955-1.68 0-.46-.309-1.137-1.227-1.937-.893-.778-2.23-1.55-3.929-2.204a1 1 0 0 1-.574-1.293Z" clip-rule="evenodd"/><path fill="#0080FF" fill-rule="evenodd" d="M3.429 13.855a1 1 0 0 1 1 1v6.858c0 .346.223.902.952 1.605.706.682 1.774 1.39 3.155 2.03 2.756 1.279 6.612 2.222 10.893 2.222 4.28 0 8.136-.943 10.893-2.222 1.38-.64 2.448-1.348 3.155-2.03.728-.703.952-1.26.952-1.605v-6.858a1 1 0 1 1 2 0v6.858c0 1.14-.672 2.183-1.563 3.044-.913.882-2.188 1.703-3.703 2.406-3.034 1.407-7.179 2.407-11.734 2.407-4.556 0-8.7-1-11.735-2.407-1.514-.703-2.79-1.524-3.703-2.406-.89-.86-1.562-1.905-1.562-3.044v-6.858a1 1 0 0 1 1-1Z" clip-rule="evenodd"/><path fill="#0080FF" fill-rule="evenodd" d="M7.7 9.332C10.739 7.95 14.882 7 19.43 7c4.547 0 8.69.95 11.728 2.332 1.516.69 2.796 1.507 3.713 2.403.902.88 1.559 1.946 1.559 3.118s-.657 2.235-1.56 3.114c-.918.892-2.198 1.705-3.714 2.392-3.037 1.376-7.18 2.319-11.726 2.319-4.547 0-8.69-.943-11.727-2.32-1.516-.686-2.796-1.499-3.713-2.392-.903-.878-1.56-1.941-1.56-3.113s.656-2.237 1.559-3.118c.917-.896 2.197-1.712 3.713-2.402Zm-2.315 3.834c-.717.7-.956 1.28-.956 1.687 0 .405.238.983.954 1.68.702.683 1.765 1.379 3.145 2.004 2.753 1.248 6.61 2.14 10.9 2.14s8.148-.892 10.902-2.14c1.38-.625 2.442-1.321 3.144-2.004.716-.697.955-1.275.955-1.68 0-.407-.24-.987-.956-1.687-.702-.686-1.766-1.385-3.145-2.013C27.575 9.899 23.718 9 19.428 9c-4.288 0-8.145.899-10.899 2.153-1.379.628-2.442 1.327-3.144 2.013Z" clip-rule="evenodd"/></svg>
