<svg xmlns="http://www.w3.org/2000/svg"	viewBox="0 0 20 20" width="20" height="20">
<g>
	<path d="M17.5,2.5c-0.9-0.9-2-1.5-3.1-1.5H5.6C4.6,1,3.4,1.7,2.5,2.5S1,4.6,1,5.6v8.7c0,1.1,0.7,2.2,1.5,3.1
		c0.9,0.9,2,1.5,3.1,1.5h8.7c1.1,0,2.2-0.7,3.1-1.5c0.9-0.9,1.5-2,1.5-3.1V5.6C19,4.6,18.3,3.4,17.5,2.5z M17.6,14.4
		c0,0.6-0.5,1.4-1.1,2.1c-0.7,0.7-1.5,1.1-2.1,1.1H5.6c-0.6,0-1.4-0.5-2.1-1.1c-0.7-0.7-1.1-1.5-1.1-2.1V5.6c0-0.6,0.5-1.4,1.1-2.1
		C4.2,2.9,5,2.4,5.6,2.4h8.7c0.6,0,1.4,0.5,2.1,1.1c0.7,0.7,1.1,1.5,1.1,2.1V14.4z"/>
	<path d="M6.5,9.7c-0.4,0-0.7,0.3-0.7,0.7v3.5c0,0.4,0.3,0.7,0.7,0.7c0.4,0,0.7-0.3,0.7-0.7v-3.5
		C7.2,10.1,6.9,9.7,6.5,9.7z"/>
	<path d="M10,5.4c-0.4,0-0.7,0.3-0.7,0.7v7.9c0,0.4,0.3,0.7,0.7,0.7c0.4,0,0.7-0.3,0.7-0.7V6.1
		C10.7,5.7,10.4,5.4,10,5.4z"/>
	<path d="M13.5,7.1c-0.4,0-0.7,0.3-0.7,0.7v6.1c0,0.4,0.3,0.7,0.7,0.7c0.4,0,0.7-0.3,0.7-0.7V7.8
		C14.2,7.4,13.9,7.1,13.5,7.1z"/>
</g>
</svg>
