<svg xmlns="http://www.w3.org/2000/svg" viewBox="0 0 20 20" width="20" height="20">
<g>
	<path d="M13,9.5c-0.2-0.2-0.5-0.3-0.8-0.3c-0.2,0-0.5,0.1-0.7,0.2s-0.3,0.3-0.4,0.5C11,10.1,11,10.3,11,10.5
		c0,0.2,0.2,0.4,0.3,0.6c0.2,0.2,0.4,0.3,0.6,0.3c0.2,0,0.5,0,0.7-0.1s0.4-0.2,0.5-0.4c0.1-0.2,0.2-0.4,0.2-0.7
		C13.4,10,13.2,9.7,13,9.5z"/>
	<path d="M18.7,16.9c-0.2-0.2-0.4-0.3-0.6-0.3h-1.6V3.1c0-0.4-0.2-0.8-0.4-1.1c-0.3-0.3-0.7-0.4-1.1-0.4H5
		c-0.4,0-0.8,0.2-1.1,0.4S3.5,2.7,3.5,3.1v13.5H1.9c-0.2,0-0.5,0.1-0.6,0.3C1.1,17,1,17.3,1,17.5s0.1,0.5,0.3,0.6
		c0.2,0.2,0.4,0.3,0.6,0.3h16.3c0.2,0,0.5-0.1,0.6-0.3c0.2-0.2,0.3-0.4,0.3-0.6S18.9,17,18.7,16.9z M5.3,3.4h9.5v13.3H5.3V3.4z"/>
</g>
</svg>
