<svg xmlns="http://www.w3.org/2000/svg" viewBox="0 0 20 20" width="20" height="20">
<path class="st0" d="M17.3,7l-6-5.8C11.2,1.1,11,1,10.9,1h-6C4.3,1,3.6,1.2,3.2,1.7s-0.7,1-0.7,1.6v13.3c0,0.6,0.3,1.2,0.7,1.6
	C3.6,18.8,4.3,19,4.9,19h10.2c0.6,0,1.2-0.2,1.7-0.7c0.4-0.4,0.7-1,0.7-1.6V7.5C17.5,7.3,17.4,7.2,17.3,7z M11.5,3.3l3.6,3.6h-3.6
	V3.3z M3.9,3.3c0-0.3,0.1-0.5,0.3-0.7s0.5-0.3,0.7-0.3h5.3v5.2c0,0.4,0.3,0.7,0.7,0.7h5.3v8.5c0,0.3-0.1,0.5-0.3,0.7
	c-0.2,0.2-0.5,0.3-0.7,0.3H4.9c-0.3,0-0.5-0.1-0.7-0.3c-0.2-0.2-0.3-0.4-0.3-0.7V3.3z"/>
</svg>
