
<svg xmlns="http://www.w3.org/2000/svg" width="48" height="48" viewBox="0 0 48 48" fill="none">
  <path fill="#0080FF" fill-rule="evenodd" d="M3 24.4c0 2.679.539 5.332 1.586 7.807a20.377 20.377 0 0 0 4.516 6.618 20.87 20.87 0 0 0 6.76 4.422 21.22 21.22 0 0 0 7.972 1.553 21.22 21.22 0 0 0 7.973-1.553 20.869 20.869 0 0 0 6.759-4.422 20.375 20.375 0 0 0 4.516-6.618 20.031 20.031 0 0 0 1.586-7.807c0-5.41-2.195-10.6-6.102-14.425C34.659 6.149 29.36 4 23.834 4S13.009 6.15 9.102 9.975C5.195 13.801 3 18.99 3 24.4Zm39.217 0c0 4.774-1.937 9.352-5.384 12.728-3.448 3.376-8.123 5.272-12.999 5.272-4.875 0-9.551-1.896-12.999-5.272-3.447-3.376-5.384-7.954-5.384-12.728s1.937-9.352 5.384-12.728C14.283 8.296 18.96 6.4 23.834 6.4s9.551 1.896 12.999 5.272c3.447 3.376 5.384 7.954 5.384 12.728Z" clip-rule="evenodd"/>
  <path fill="#0080FF" fill-rule="evenodd" d="M15.255 24.4c0 10.55 3.534 19.2 8.579 19.2 5.044 0 8.578-8.65 8.578-19.2 0-10.551-3.534-19.2-8.578-19.2-5.045 0-8.58 8.649-8.58 19.2Zm14.706 0c0 9.333-3.051 16.8-6.127 16.8-3.076 0-6.128-7.467-6.128-16.8 0-9.334 3.052-16.8 6.128-16.8s6.127 7.466 6.127 16.8Z" clip-rule="evenodd"/>
  <path fill="#0080FF" d="m8.478 13.148 1.642-1.78c.263.23.542.455.841.674 3.23 2.37 8.329 3.816 13.885 3.816 4.738 0 9.16-1.05 12.39-2.856a13.718 13.718 0 0 0 2.101-1.433l1.593 1.824a16.099 16.099 0 0 1-2.475 1.69c-3.62 2.027-8.461 3.175-13.609 3.175-6.054 0-11.672-1.592-15.356-4.296-.35-.257-.687-.527-1.012-.814Zm0 22.531 1.642 1.776c.263-.23.542-.456.841-.672 3.23-2.371 8.329-3.816 13.885-3.816 4.738 0 9.16 1.047 12.39 2.856.787.442 1.49.922 2.101 1.43l1.593-1.823a16.142 16.142 0 0 0-2.475-1.69c-3.62-2.026-8.461-3.173-13.609-3.173-6.054 0-11.672 1.591-15.356 4.294-.357.264-.696.537-1.012.818ZM4.226 25.6v-2.4h39.217v2.4H4.226Z"/>
</svg>
