<svg xmlns="http://www.w3.org/2000/svg" viewBox="0 0 20 20" width="20" height="20">
<path d="M10,1.4c-4.7,0-8.6,3.8-8.6,8.6c0,4.7,3.8,8.6,8.6,8.6c4.7,0,8.6-3.8,8.6-8.6C18.6,5.3,14.7,1.4,10,1.4z
	 M7.5,9.4c0.2-2.3,1-4.5,2.5-6.3c1.4,1.8,2.3,4,2.5,6.3H7.5z M12.5,10.6c-0.2,2.3-1,4.5-2.5,6.3c-1.4-1.8-2.3-4-2.5-6.3H12.5z
	 M10,2.7L10,2.7L10,2.7L10,2.7z M8.5,2.9C7.2,4.8,6.4,7,6.2,9.4H2.7C3,6.1,5.4,3.5,8.5,2.9z M6.2,10.6c0.2,2.3,1,4.6,2.3,6.5
	c-3.1-0.6-5.5-3.3-5.8-6.5H6.2z M9.1,17.5L9.1,17.5L9.1,17.5L9.1,17.5z M13.8,9.4c-0.2-2.3-1-4.6-2.3-6.5c3.1,0.6,5.5,3.3,5.8,6.5
	H13.8z M13.6,9.6L13.6,9.6L13.6,9.6L13.6,9.6z M11.5,17.1c1.4-1.9,2.2-4.2,2.3-6.5h3.5C17,13.9,14.6,16.5,11.5,17.1z"/>
</svg>
