<svg xmlns="http://www.w3.org/2000/svg" viewBox="0 0 20 20" width="20" height="20">
<path d="M19.5,6.8c0-0.7-0.1-1.4-0.4-2.1C18.8,4.2,18.4,3.6,18,3l0,0c-0.5-0.5-1.1-0.9-1.7-1.1c-0.6-0.3-1.3-0.4-2-0.4
	c-0.7,0-1.4,0.1-2,0.4C11.6,2.2,11,2.6,10.5,3l0,0L9.9,3.5L9.5,3c-1-1-2.3-1.5-3.8-1.5S3,2.1,2,3c-1,1-1.5,2.4-1.5,3.8
	S1.1,9.6,2,10.7l7.5,7.6c0.3,0.3,0.7,0.3,0.9,0l7.5-7.6l0,0c0.5-0.5,0.9-1.1,1.1-1.7C19.3,8.3,19.5,7.6,19.5,6.8z M17.8,3.1
	L17.8,3.1L17.8,3.1L17.8,3.1L17.8,3.1z M10.6,3.1L10.6,3.1L10.6,3.1L10.6,3.1z"/>
</svg>
