<svg xmlns="http://www.w3.org/2000/svg" viewBox="0 0 20 20" width="20" height="20">
<path d="M19.5,6.9c0-0.7-0.1-1.4-0.4-2.1c-0.3-0.7-0.7-1.3-1.2-1.8l0,0c-0.5-0.5-1.1-0.9-1.7-1.2
	c-0.6-0.3-1.3-0.4-2-0.4c-0.7,0-1.4,0.1-2,0.4c-0.6,0.3-1.2,0.7-1.7,1.2L10,3.5L9.6,3.1c-1-1-2.4-1.6-3.8-1.6
	c-1.4,0-2.8,0.6-3.8,1.6c-1,1-1.6,2.4-1.6,3.8c0,1.4,0.6,2.8,1.6,3.8l7.5,7.6c0.3,0.3,0.7,0.3,1,0l7.5-7.6l0,0
	c0.5-0.5,0.9-1.1,1.2-1.8C19.4,8.3,19.5,7.6,19.5,6.9z M17.1,4.1l-0.2,0.2l0,0c0.4,0.4,0.7,0.8,0.8,1.3c0.2,0.5,0.3,1,0.3,1.5
	s-0.1,1-0.3,1.5c-0.2,0.5-0.5,0.9-0.8,1.3v0L10,16.7L3.1,9.9C2.4,9.1,2,8.1,2,7.1s0.4-2,1.1-2.8c0.7-0.7,1.7-1.1,2.8-1.1
	c1,0,2,0.4,2.8,1.1l0.9,0.9c0.3,0.3,0.7,0.3,0.9,0l0.9-0.9v0c0.4-0.4,0.8-0.7,1.3-0.8s1-0.3,1.5-0.3c0.5,0,1,0.1,1.5,0.3
	c0.5,0.2,0.9,0.5,1.3,0.8L17.1,4.1L17.1,4.1z M10,17.1L10,17.1L10,17.1L10,17.1z M17.7,3.5L17.7,3.5L17.7,3.5L17.7,3.5L17.7,3.5z
	 M10.6,3.5L10.6,3.5L10.6,3.5L10.6,3.5z M10,4.1L10,4.1L10,4.1L10,4.1z"/>
</svg>
