<svg xmlns="http://www.w3.org/2000/svg" viewBox="0 0 20 20" width="20" height="20">
<g>
	<path d="M10,13.5L10,13.5c-0.4,0-0.7,0.3-0.7,0.7c0,0.4,0.3,0.7,0.7,0.7h0c0.4,0,0.7-0.3,0.7-0.7
		C10.7,13.8,10.4,13.5,10,13.5z"/>
	<path d="M10,1c-5,0-9,4-9,9s4,9,9,9s9-4,9-9S15,1,10,1z M10,17.7c-4.2,0-7.7-3.4-7.7-7.7S5.8,2.3,10,2.3
		s7.7,3.4,7.7,7.7S14.2,17.7,10,17.7z"/>
	<path d="M13.1,8.3c0-0.7-0.3-1.5-0.7-2c-0.5-0.6-1.2-1-1.9-1.1C9.7,5.1,9,5.2,8.3,5.6C7.7,6,7.2,6.6,6.9,7.3
		C6.8,7.6,7,8,7.4,8.1c0.3,0.1,0.7-0.1,0.9-0.4C8.3,7.3,8.6,7,9,6.7c0.4-0.2,0.8-0.3,1.2-0.2c0.4,0.1,0.8,0.3,1.1,0.6
		c0.3,0.3,0.4,0.8,0.4,1.2v0c0,0.6-0.4,1.1-0.8,1.6c-0.2,0.2-0.4,0.4-0.6,0.5c-0.1,0.1-0.2,0.1-0.2,0.1c0,0,0,0-0.1,0l0,0l0,0l0,0
		l0,0l0,0l0,0l0,0l0,0c-0.3,0.2-0.4,0.6-0.2,0.9c0.2,0.3,0.6,0.4,0.9,0.2c0,0,0.1,0,0.1,0l0,0l0,0l-0.1-0.2l0,0l0.1,0.2l0,0l0,0l0,0
		l-0.1-0.2l0,0l0.1,0.2l0,0l0,0l-0.1-0.2l0,0l0,0l0.1,0.2l0,0l-0.1-0.2l0,0l0.1,0.2l0,0c0,0,0,0,0.1-0.1c0.1,0,0.2-0.1,0.3-0.2
		c0.2-0.2,0.5-0.4,0.8-0.7C12.4,10.3,13.1,9.4,13.1,8.3L13.1,8.3C13.1,8.3,13.1,8.3,13.1,8.3C13.1,8.3,13.1,8.3,13.1,8.3L13.1,8.3z
		 M10.2,10.9L10.2,10.9L10.2,10.9L10.2,10.9z M10.2,10.9L10.2,10.9L10.2,10.9L10.2,10.9L10.2,10.9z"/>
</g>
</svg>
