<svg xmlns="http://www.w3.org/2000/svg" viewBox="0 0 20 20" width="20" height="20">
<path d="M17.9,7l-7.5-5.8C10.2,1,9.8,1,9.6,1.1L2.1,7C1.9,7.1,1.8,7.3,1.8,7.5v9.2c0,0.6,0.2,1.2,0.7,1.6
	C3,18.8,3.5,19,4.2,19h11.7c0.6,0,1.2-0.2,1.6-0.7c0.4-0.4,0.7-1,0.7-1.6V7.5C18.2,7.3,18.1,7.1,17.9,7z M8.2,10.7h3.7v7H8.2V10.7z
	 M2.9,7.7L2.9,7.7L2.9,7.7L2.9,7.7z M12.5,9.3h-5c-0.4,0-0.7,0.3-0.7,0.7v7.7H4.2c-0.3,0-0.5-0.1-0.7-0.3c-0.2-0.2-0.3-0.4-0.3-0.7
	V7.8L10,2.5l6.8,5.3v8.8c0,0.3-0.1,0.5-0.3,0.7c-0.2,0.2-0.4,0.3-0.7,0.3h-2.7V10C13.2,9.6,12.9,9.3,12.5,9.3z"/>
</svg>
