<svg xmlns="http://www.w3.org/2000/svg" width="24" height="24" viewBox="0 0 24 24" fill="none">
<path fill="#fff" fill-rule="evenodd" d="M12 10.75a.75.75 0 0 1 .75.75v5a.75.75 0 0 1-1.5 0v-5a.75.75 0 0 1 .75-.75ZM12.512 6.943a.75.75 0 0 1 .056 1.059l-.01.01a.75.75 0 0 1-1.115-1.003l.01-.01a.75.75 0 0 1 1.059-.056Z" clip-rule="evenodd"/><path fill="#fff" fill-rule="evenodd" d="M12 2.75a9.25 9.25 0 1 0 0 18.5 9.25 9.25 0 0 0 0-18.5ZM1.25 12C1.25 6.063 6.063 1.25 12 1.25S22.75 6.063 22.75 12 17.937 22.75 12 22.75 1.25 17.937 1.25 12Z" clip-rule="evenodd"/>
</svg>
