<svg xmlns="http://www.w3.org/2000/svg" viewBox="0 0 20 20" width="20" height="20">
<path d="M19.1,8.4c-0.1-0.4-0.3-0.7-0.5-1S18,6.9,17.7,6.7S17,6.5,16.6,6.5l0,0h-3.8V4.2c0-0.9-0.4-1.8-1-2.4
	s-1.5-1-2.4-1C9,0.8,8.7,1,8.6,1.3l-3.1,7H3.6C2.9,8.3,2.2,8.5,1.7,9s-0.8,1.1-0.8,1.8v5.8c0,0.7,0.3,1.3,0.8,1.8s1.1,0.8,1.8,0.8
	h11.9l0,0c0.6,0,1.2-0.2,1.7-0.6c0.5-0.4,0.8-1,0.9-1.6l0,0l0,0l0,0l0,0l0,0l1.1-7.5l0,0l-0.5-0.1l0,0l0.5,0.1
	C19.2,9.2,19.2,8.8,19.1,8.4z M17.2,16.9L17.2,16.9l0.4,0.1L17.2,16.9z M17.9,9.4l0.3,0.1l0,0l0,0l0,0L17.9,9.4z M17.4,9.3L17.4,9.3
	l-1.1,7.5l0.5,0.1l0,0l-0.5-0.1l0,0c0,0.2-0.1,0.3-0.3,0.5c-0.1,0.1-0.3,0.2-0.5,0.2V18l0,0v-0.5l0,0H7V9.4l3-6.7
	c0.2,0.1,0.4,0.2,0.6,0.3c0.3,0.3,0.5,0.7,0.5,1.1v3.3c0,0.5,0.4,0.9,0.9,0.9h4.7l0,0l0,0l0,0c0.1,0,0.2,0,0.3,0.1
	c0.1,0,0.2,0.1,0.3,0.2c0.1,0.1,0.1,0.2,0.2,0.3C17.4,9.1,17.4,9.2,17.4,9.3z M2.8,16.7v-5.8c0-0.2,0.1-0.4,0.2-0.5
	c0.1-0.1,0.3-0.2,0.5-0.2h1.6v7.3H3.6c-0.2,0-0.4-0.1-0.5-0.2C2.9,17.1,2.8,16.9,2.8,16.7z M9.7,2.1L9.7,2.1V1.8l0,0V2.1z"/>
</svg>
