<svg xmlns="http://www.w3.org/2000/svg" width="52" height="52" viewBox="0 0 52 52" fill="none"><g fill="#D03E9D" clip-path="url(#a)"><path d="M24.447 26.384c0 .596.51 1.106 1.107 1.106H38.83c.596 0 1.107-.51 1.107-1.106 0-.596-.511-1.107-1.107-1.107H25.554c-.596 0-1.107.511-1.107 1.107ZM24.106 30.638c0 .595.511 1.106 1.107 1.106h20.85c.597 0 1.107-.51 1.107-1.106 0-.596-.51-1.107-1.106-1.107H25.213c-.596 0-1.107.51-1.107 1.107ZM34.49 19.064c.595 0 1.106-.51 1.106-1.106 0-.596-.51-1.106-1.106-1.106H20.532c-.596 0-1.106.51-1.106 1.106 0 .596.51 1.106 1.106 1.106H34.49ZM36.447 17.958c0 .596.51 1.106 1.107 1.106h4.17c.596 0 1.106-.51 1.106-1.106 0-.596-.51-1.106-1.106-1.106h-4.17c-.596 0-1.107.51-1.107 1.106ZM36.021 22.212c0-.596-.51-1.107-1.106-1.107H12.106c-.595 0-1.106.511-1.106 1.107s.51 1.106 1.106 1.106h22.809c.596 0 1.106-.51 1.106-1.106ZM29.213 13.7c0 .596.51 1.107 1.106 1.107h5.617c.596 0 1.107-.511 1.107-1.107s-.511-1.106-1.107-1.106H30.32c-.595 0-1.106.51-1.106 1.106ZM31.766 10.639h1.106c.596 0 1.106-.511 1.106-1.107s-.51-1.106-1.106-1.106h-1.106c-.596 0-1.107.51-1.107 1.106 0 .596.51 1.107 1.107 1.107ZM18.32 27.572c.595 0 1.106-.51 1.106-1.106 0-.596-.511-1.107-1.107-1.107H9.213c-.596 0-1.107.511-1.107 1.107 0 .595.511 1.106 1.107 1.106h9.106ZM40.021 37.957c-.595 0-1.106.51-1.106 1.106 0 .596.51 1.107 1.106 1.107h2.554c.595 0 1.106-.51 1.106-1.107 0-.595-.51-1.106-1.106-1.106H40.02ZM18.404 33.703h-6.383c-.595 0-1.106.51-1.106 1.106 0 .596.51 1.107 1.106 1.107h6.383c.596 0 1.107-.51 1.107-1.106 0-.596-.51-1.107-1.107-1.107ZM47.34 35.15c0-.596-.68-1.107-1.532-1.107H27.51c-.85 0-1.532.51-1.532 1.106 0 .596.681 1.107 1.532 1.107h18.298c.851.085 1.532-.426 1.532-1.107ZM6.574 30.638c0 .595.51 1.106 1.107 1.106h9.02c.597 0 1.107-.51 1.107-1.106 0-.596-.51-1.107-1.106-1.107H7.68c-.596 0-1.107.51-1.107 1.107ZM9.724 40.256h8.425c.596 0 1.107-.51 1.107-1.107 0-.595-.511-1.106-1.107-1.106H9.724c-.596 0-1.107.51-1.107 1.106 0 .596.51 1.107 1.107 1.107ZM5.213 34.893c0 .596.51 1.106 1.106 1.106h2.298c.596 0 1.107-.51 1.107-1.106 0-.596-.511-1.106-1.107-1.106H6.404c-.68-.085-1.191.425-1.191 1.106ZM22.235 8.34c-.681 0-1.192.51-1.192 1.106 0 .596.51 1.107 1.192 1.107h6.212c.681 0 1.192-.511 1.192-1.107s-.51-1.106-1.192-1.106h-6.212ZM25.213 37.957c-.596 0-1.107.51-1.107 1.106 0 .596.511 1.107 1.107 1.107h11.66c.595 0 1.106-.51 1.106-1.107 0-.595-.51-1.106-1.107-1.106h-11.66ZM17.383 44.424c.596 0 1.107-.51 1.107-1.107 0-.595-.51-1.106-1.107-1.106H14.15c-.595 0-1.106.51-1.106 1.106 0 .596.51 1.107 1.106 1.107h3.234ZM10.66 42.21H8.445c-.68 0-1.191.512-1.191 1.107 0 .596.51 1.107 1.106 1.107h2.298c.596 0 1.106-.51 1.106-1.107 0-.595-.51-1.106-1.106-1.106ZM6.234 37.957H4.106c-.595 0-1.106.51-1.106 1.106 0 .596.51 1.107 1.106 1.107h2.128c.596 0 1.106-.51 1.106-1.107.086-.595-.425-1.106-1.106-1.106ZM44.617 42.21h-1.958c-.596 0-1.106.512-1.106 1.107 0 .596.51 1.107 1.106 1.107h1.958c.595 0 1.106-.51 1.106-1.107 0-.595-.51-1.106-1.106-1.106ZM47.17 37.957h-1.276c-.596 0-1.107.51-1.107 1.106 0 .596.51 1.107 1.107 1.107h1.276c.596 0 1.106-.51 1.106-1.107 0-.595-.51-1.106-1.106-1.106ZM39.255 42.21H25.383c-.596 0-1.107.512-1.107 1.107 0 .596.511 1.107 1.107 1.107h13.872c.596 0 1.106-.51 1.106-1.107 0-.595-.51-1.106-1.106-1.106ZM5.383 27.572h.766c.595 0 1.106-.51 1.106-1.106 0-.596-.51-1.107-1.106-1.107h-.766c-.596 0-1.107.511-1.107 1.107 0 .595.511 1.106 1.107 1.106ZM5.724 23.318h2.808c.596 0 1.106-.51 1.106-1.106 0-.596-.51-1.107-1.106-1.107H5.724c-.596 0-1.107.511-1.107 1.107s.426 1.106 1.107 1.106ZM18.063 10.639h.596c.596 0 1.107-.511 1.107-1.107s-.511-1.106-1.107-1.106h-.596c-.595 0-1.106.51-1.106 1.106 0 .596.51 1.107 1.106 1.107ZM24.957 2.213h1.362c.595 0 1.106-.51 1.106-1.107C27.425.511 26.915 0 26.32 0h-1.362c-.596 0-1.106.51-1.106 1.106 0 .596.51 1.107 1.106 1.107ZM17.383 14.893H27c.596 0 1.106-.511 1.106-1.107S27.596 12.68 27 12.68h-9.617c-.596 0-1.107.51-1.107 1.106 0 .596.511 1.107 1.107 1.107ZM21.554 6.38h5.872c.596 0 1.106-.51 1.106-1.106 0-.595-.51-1.106-1.106-1.106h-5.872c-.596 0-1.107.51-1.107 1.106 0 .596.51 1.107 1.107 1.107ZM16.362 19.064h1.021c.596 0 1.106-.51 1.106-1.106 0-.596-.51-1.106-1.106-1.106h-1.021c-.596 0-1.107.51-1.107 1.106-.085.596.426 1.106 1.107 1.106ZM11.851 19.064h1.362c.596 0 1.107-.51 1.107-1.106 0-.596-.511-1.106-1.107-1.106h-1.361c-.596 0-1.107.51-1.107 1.106 0 .596.51 1.106 1.107 1.106ZM27.34 50.469H14.575c-.766 0-.766.68-.766.766 0 .085 0 .766.766.766H27.34c.767 0 .767-.681.767-.766 0-.085 0-.766-.767-.766Z"/><path d="M24.787 35.064c-.17-.766-2.213.766-2.213-.596v-4.766h-1.191c-.17 0-.256-.085-.256-.255 0-.17.085-.256.256-.256h1.191v-.255l.085-1.277s.17-1.276-.68-1.276c-.256 0-.596.085-.767.34-.51.596-1.531 2.298-1.616 3.064-.086.936 1.276.68 1.446 3.745h.426c.085 0 .17.085.17.17s-.085.17-.17.17h-.426v.17c0 1.617.085 4.426-.17 7.32h.255c.17 0 .256.085.256.255 0 .17-.085.255-.256.255h-.34c-.17 1.873-.425 3.83-.851 5.532h1.021c.17 0 .255.085.255.255 0 .17-.085.256-.255.256h-1.191c-.34 1.106-.681 2.127-1.192 2.979H23s-1.107-1.022-1.107-2.128c0-1.021.17-2.639.256-4h-1.277a.183.183 0 0 1-.17-.17c0-.085.085-.17.17-.17h1.277c.085-1.277.17-4.511.17-5.788h-.596a.183.183 0 0 1-.17-.17c0-.085.085-.17.17-.17h.766c0-1.873 2.468-2.468 2.298-3.234Z"/></g><defs><clipPath id="a"><path fill="#fff" d="M0 0h52v52H0z"/></clipPath></defs></svg>
