<svg width="20" height="20" viewBox="0 0 20 20" xmlns="http://www.w3.org/2000/svg">
<path d="M3.33333 2.91675C2.18655 2.91675 1.25 3.8533 1.25 5.00008V15.0001C1.25 16.1469 2.18655 17.0834 3.33333 17.0834H16.6667C17.8135 17.0834 18.75 16.1469 18.75 15.0001V5.00008C18.75 3.8533 17.8135 2.91675 16.6667 2.91675H3.33333ZM2.79538 3.87288C2.95861 3.79423 3.14115 3.75008 3.33333 3.75008H16.6667C16.8588 3.75008 17.0414 3.79423 17.2046 3.87288L10 11.0775L2.79538 3.87288ZM2.20613 4.46213C2.12748 4.62536 2.08333 4.8079 2.08333 5.00008V15.0001C2.08333 15.6866 2.64679 16.2501 3.33333 16.2501H16.6667C17.3532 16.2501 17.9167 15.6866 17.9167 15.0001V5.00008C17.9167 4.8079 17.8725 4.62536 17.7939 4.46213L10.2946 11.9614C10.2165 12.0395 10.1105 12.0834 10 12.0834C9.88949 12.0834 9.78351 12.0395 9.70537 11.9614L2.20613 4.46213Z"/>
<path d="M2.79538 3.87288L2.68687 3.64765L2.36951 3.80055L2.61861 4.04965L2.79538 3.87288ZM17.2046 3.87288L17.3814 4.04965L17.6305 3.80055L17.3131 3.64765L17.2046 3.87288ZM10 11.0775L9.82322 11.2543L10 11.431L10.1768 11.2543L10 11.0775ZM2.20613 4.46213L2.3829 4.28535L2.13381 4.03626L1.9809 4.35362L2.20613 4.46213ZM17.7939 4.46213L18.0191 4.35362L17.8662 4.03626L17.6171 4.28535L17.7939 4.46213ZM10.2946 11.9614L10.1179 11.7846L10.1179 11.7846L10.2946 11.9614ZM9.70537 11.9614L9.52859 12.1382L9.52859 12.1382L9.70537 11.9614ZM3.33333 3.50008C3.10249 3.50008 2.88296 3.55318 2.68687 3.64765L2.90389 4.0981C3.03427 4.03528 3.17981 4.00008 3.33333 4.00008V3.50008ZM16.6667 3.50008H3.33333V4.00008H16.6667V3.50008ZM17.3131 3.64765C17.117 3.55318 16.8975 3.50008 16.6667 3.50008V4.00008C16.8202 4.00008 16.9657 4.03528 17.0961 4.0981L17.3131 3.64765ZM10.1768 11.2543L17.3814 4.04965L17.0278 3.6961L9.82322 10.9007L10.1768 11.2543ZM2.61861 4.04965L9.82322 11.2543L10.1768 10.9007L2.97216 3.6961L2.61861 4.04965ZM1.9809 4.35362C1.88643 4.54971 1.83333 4.76924 1.83333 5.00008H2.33333C2.33333 4.84656 2.36854 4.70102 2.43135 4.57064L1.9809 4.35362ZM1.83333 5.00008V15.0001H2.33333V5.00008H1.83333ZM1.83333 15.0001C1.83333 15.8247 2.50871 16.5001 3.33333 16.5001V16.0001C2.78486 16.0001 2.33333 15.5486 2.33333 15.0001H1.83333ZM3.33333 16.5001H16.6667V16.0001H3.33333V16.5001ZM16.6667 16.5001C17.4913 16.5001 18.1667 15.8247 18.1667 15.0001H17.6667C17.6667 15.5486 17.2151 16.0001 16.6667 16.0001V16.5001ZM18.1667 15.0001V5.00008H17.6667V15.0001H18.1667ZM18.1667 5.00008C18.1667 4.76924 18.1136 4.54971 18.0191 4.35362L17.5686 4.57064C17.6315 4.70102 17.6667 4.84656 17.6667 5.00008H18.1667ZM17.6171 4.28535L10.1179 11.7846L10.4714 12.1382L17.9706 4.63891L17.6171 4.28535ZM10.1179 11.7846C10.0866 11.8159 10.0442 11.8334 10 11.8334V12.3334C10.1768 12.3334 10.3464 12.2632 10.4714 12.1382L10.1179 11.7846ZM10 11.8334C9.9558 11.8334 9.9134 11.8159 9.88215 11.7846L9.52859 12.1382C9.65362 12.2632 9.82319 12.3334 10 12.3334V11.8334ZM9.88215 11.7846L2.3829 4.28535L2.02935 4.63891L9.52859 12.1382L9.88215 11.7846ZM1.5 5.00008C1.5 3.99137 2.32462 3.16675 3.33333 3.16675V2.66675C2.04848 2.66675 1 3.71522 1 5.00008H1.5ZM1.5 15.0001V5.00008H1V15.0001H1.5ZM3.33333 16.8334C2.32462 16.8334 1.5 16.0088 1.5 15.0001H1C1 16.2849 2.04848 17.3334 3.33333 17.3334V16.8334ZM16.6667 16.8334H3.33333V17.3334H16.6667V16.8334ZM18.5 15.0001C18.5 16.0088 17.6754 16.8334 16.6667 16.8334V17.3334C17.9515 17.3334 19 16.2849 19 15.0001H18.5ZM18.5 5.00008V15.0001H19V5.00008H18.5ZM16.6667 3.16675C17.6754 3.16675 18.5 3.99137 18.5 5.00008H19C19 3.71522 17.9515 2.66675 16.6667 2.66675V3.16675ZM3.33333 3.16675H16.6667V2.66675H3.33333V3.16675Z"/>
</svg>
