<svg width="20" height="20" viewBox="0 0 20 20" xmlns="http://www.w3.org/2000/svg">
<path d="M9.99967 5.41675C8.38884 5.41675 7.08301 6.72258 7.08301 8.33342C7.08301 9.94425 8.38884 11.2501 9.99967 11.2501C11.6105 11.2501 12.9163 9.94425 12.9163 8.33342C12.9163 6.72258 11.6105 5.41675 9.99967 5.41675ZM7.91634 8.33342C7.91634 7.18282 8.84908 6.25008 9.99967 6.25008C11.1503 6.25008 12.083 7.18282 12.083 8.33342C12.083 9.48401 11.1503 10.4167 9.99967 10.4167C8.84908 10.4167 7.91634 9.48401 7.91634 8.33342Z"/>
<path d="M9.76828 19.5133C9.76843 19.5134 9.76855 19.5134 9.99967 19.1667L9.76828 19.5133C9.90824 19.6066 10.0908 19.6067 10.2308 19.5134L9.99967 19.1667C10.2308 19.5134 10.2307 19.5135 10.2308 19.5134L10.2315 19.513L10.2329 19.512L10.2377 19.5088L10.2553 19.4969C10.2705 19.4866 10.2926 19.4715 10.3211 19.4517C10.3782 19.4122 10.461 19.354 10.5659 19.2783C10.7756 19.1268 11.0738 18.9048 11.4311 18.6203C12.145 18.0519 13.0978 17.2315 14.0522 16.2241C15.9437 14.2275 17.9163 11.4176 17.9163 8.33342C17.9163 6.23378 17.0823 4.22015 15.5976 2.73549C14.1129 1.25082 12.0993 0.416748 9.99967 0.416748C7.90004 0.416748 5.88641 1.25082 4.40175 2.73549C2.91708 4.22015 2.08301 6.23378 2.08301 8.33342C2.08301 11.4176 4.05562 14.2275 5.94719 16.2241C6.9015 17.2315 7.8544 18.0519 8.56825 18.6203C8.9255 18.9048 9.22373 19.1268 9.43345 19.2783C9.53834 19.354 9.62115 19.4122 9.67821 19.4517C9.70674 19.4715 9.72884 19.4866 9.74405 19.4969L9.76164 19.5088L9.76645 19.512L9.76828 19.5133ZM4.991 3.32474C6.31938 1.99636 8.12106 1.25008 9.99967 1.25008C11.8783 1.25008 13.68 1.99636 15.0083 3.32474C16.3367 4.65312 17.083 6.4548 17.083 8.33342C17.083 11.0826 15.3056 13.6894 13.4472 15.651C12.5265 16.6229 11.6044 17.417 10.912 17.9684C10.5661 18.2438 10.2784 18.458 10.078 18.6027C10.0502 18.6228 10.024 18.6416 9.99967 18.659C9.97531 18.6416 9.94918 18.6228 9.92136 18.6027C9.72093 18.458 9.43322 18.2438 9.08735 17.9684C8.39495 17.417 7.47285 16.6229 6.55215 15.651C4.69373 13.6894 2.91634 11.0826 2.91634 8.33342C2.91634 6.4548 3.66262 4.65312 4.991 3.32474Z"/>
</svg>
