<svg xmlns="http://www.w3.org/2000/svg" viewBox="0 0 44 14" width="44" height="14"><path d="M4.998.27c1.29 0 2.375.435 3.256 1.307.881.872 1.321 1.942 1.321 3.211 0 1.27-.44 2.34-1.32 3.212-.882.872-1.967 1.308-3.257 1.308H2.643v4.423H0V.269h4.998Zm0 6.557c.562 0 1.028-.192 1.398-.577.37-.397.556-.885.556-1.462 0-.59-.185-1.076-.556-1.461-.37-.385-.836-.577-1.398-.577H2.643v4.077h2.355ZM19.205.27v2.538h-4.979V13.73h-2.643V.269h7.622ZM26.495 14c-2.017 0-3.683-.673-4.998-2.02-1.315-1.345-1.973-3.006-1.973-4.98 0-1.987.658-3.647 1.973-4.98C22.812.672 24.477 0 26.495 0c1.213 0 2.33.288 3.351.865 1.035.564 1.839 1.334 2.413 2.308L29.98 4.5a3.484 3.484 0 0 0-1.417-1.404c-.612-.346-1.302-.52-2.068-.52-1.302 0-2.356.411-3.16 1.232-.791.82-1.187 1.884-1.187 3.192 0 1.295.396 2.353 1.187 3.173.804.82 1.858 1.23 3.16 1.23.766 0 1.456-.166 2.068-.5A3.484 3.484 0 0 0 29.981 9.5l2.278 1.327a6.339 6.339 0 0 1-2.393 2.327c-1.022.564-2.145.846-3.371.846ZM41.357.27H44l-4.022 9.75c-1.072 2.615-2.834 3.852-5.285 3.71v-2.48c.715.064 1.29-.032 1.723-.289.447-.269.817-.698 1.111-1.288L33.141.27h2.643l2.93 6.5 2.643-6.5Z"></path></svg>