<svg xmlns="http://www.w3.org/2000/svg" viewBox="0 0 20 20" width="20" height="20"><path d="M4.852 4.257c-.514.107-1.085.329-1.484.762-.39.422-.612.967-.734 1.432a4.653 4.653 0 0 0-.134.772v7.054a2.023 2.023 0 0 0 .02.202c.02.142.053.342.114.57.122.465.344 1.01.734 1.433.399.433.97.654 1.484.762a4.361 4.361 0 0 0 .868.09h.01l.01-.001H13.326c.041 0 .105 0 .185-.005.16-.01.385-.032.637-.084.514-.108 1.085-.33 1.485-.762.389-.422.61-.968.733-1.432a4.653 4.653 0 0 0 .133-.756l.001-.017V7.223l-.003-.04a4.656 4.656 0 0 0-.13-.733c-.123-.464-.345-1.009-.735-1.431-.399-.433-.97-.655-1.484-.762a4.367 4.367 0 0 0-.868-.09h-.01l-.01.001H5.72l-.046-.001a4.368 4.368 0 0 0-.822.09Zm8.39-1.089h.018l.069-.001a5.37 5.37 0 0 1 1.024.111c.611.128 1.415.413 2.014 1.063.544.588.822 1.308.966 1.855a5.659 5.659 0 0 1 .165.964l.001.018v.008L17 7.21l.5-.022v7.126l-.5-.022.5.023V14.323l-.002.018a4.342 4.342 0 0 1-.027.27 5.659 5.659 0 0 1-.138.694c-.144.547-.422 1.266-.965 1.855-.6.65-1.404.935-2.015 1.062a5.36 5.36 0 0 1-1.093.111H5.671a5.36 5.36 0 0 1-1.024-.111c-.611-.127-1.415-.412-2.015-1.062-.543-.589-.82-1.308-.965-1.855a5.65 5.65 0 0 1-.165-.964l-.001-.018V14.314L2 14.291l-.5.023V7.187l.5.022-.5-.022V7.178l.002-.018a2.96 2.96 0 0 1 .027-.27 5.65 5.65 0 0 1 .138-.694c.144-.547.422-1.267.965-1.855.6-.65 1.404-.935 2.015-1.063a5.37 5.37 0 0 1 1.093-.11h7.502Z"></path><path d="M6.168 1.5a.5.5 0 0 1 .5.5v4.167a.5.5 0 0 1-1 0V2a.5.5 0 0 1 .5-.5ZM12.832 1.5a.5.5 0 0 1 .5.5v4.167a.5.5 0 1 1-1 0V2a.5.5 0 0 1 .5-.5ZM17.5 8.833a.5.5 0 0 1-.5.5H2a.5.5 0 0 1 0-1h15a.5.5 0 0 1 .5.5Z"></path></svg>