<svg width="24" height="24" viewBox="0 0 24 24" xmlns="http://www.w3.org/2000/svg">
<path d="M19.5993 4.56677C19.139 4.56677 18.766 4.93987 18.766 5.40011V10.0668C18.766 11.6684 17.4676 12.9668 15.866 12.9668H5.74446L9.62517 9.08606C9.95061 8.76062 9.95061 8.23299 9.62517 7.90755C9.29974 7.58211 8.7721 7.58211 8.44666 7.90755L3.14336 13.2108C2.81792 13.5363 2.81792 14.0639 3.14336 14.3894L8.44666 19.6927C8.7721 20.0181 9.29974 20.0181 9.62517 19.6927C9.95061 19.3672 9.95061 18.8396 9.62517 18.5142L5.74446 14.6334H15.866C18.3881 14.6334 20.4326 12.5889 20.4326 10.0668V5.40011C20.4326 4.93987 20.0595 4.56677 19.5993 4.56677Z"/>
</svg>
