<svg xmlns="http://www.w3.org/2000/svg" width="24" height="24" viewBox="0 0 24 24">
  <path d="M4.164 11.075c4.562-1.982 7.6-3.298 9.125-3.937 4.34-1.812 5.253-2.125 5.84-2.138.13 0 .417.026.612.183.157.13.196.3.222.43.026.13.052.404.026.612-.234 2.477-1.251 8.486-1.773 11.25-.221 1.173-.651 1.564-1.069 1.603-.912.079-1.603-.6-2.476-1.173-1.382-.9-2.151-1.46-3.494-2.346-1.551-1.017-.547-1.577.34-2.49.234-.235 4.236-3.885 4.314-4.21.013-.04.013-.196-.078-.274-.092-.078-.222-.052-.326-.026-.144.026-2.334 1.486-6.596 4.367-.626.43-1.187.638-1.695.625-.56-.013-1.63-.313-2.438-.573-.977-.313-1.76-.482-1.694-1.03.039-.287.43-.574 1.16-.873Z"/>
</svg>
