<svg width="24" height="24" viewBox="0 0 24 24" xmlns="http://www.w3.org/2000/svg">
<path d="M19.6998 7.19473C20.7188 7.19473 21.5449 6.35868 21.5449 5.32734C21.5449 4.29602 20.7188 3.45996 19.6998 3.45996C18.6807 3.45996 17.8546 4.29602 17.8546 5.32734C17.8546 6.35868 18.6807 7.19473 19.6998 7.19473ZM2.45508 6.92647H15.3321C17.1464 6.92647 18.6172 8.41501 18.6172 10.2512V12.8986C18.6172 14.5375 17.4206 15.8936 15.8633 16.1206L19.0109 20.5403H15.2556L12.3511 16.1541H5.79972V20.5403H2.45508V16.1541V15.0627V6.92647ZM5.83877 9.91505H14.4122C14.8658 9.91505 15.2335 10.2872 15.2335 10.7462V12.2769C15.2335 12.7359 14.8658 13.1081 14.4122 13.1081H5.83877V9.91505Z"/>
</svg>
