<svg xmlns="http://www.w3.org/2000/svg" width="21" height="20" viewBox="0 0 21 20" fill="none"><path d="M10.333 1.668a8.333 8.333 0 0 0-7.135 12.64l-.743 2.527A.842.842 0 0 0 3.5 17.88l2.527-.744a8.333 8.333 0 1 0 4.307-15.468Zm-1.885 10.22c1.686 1.684 3.295 1.907 3.864 1.928.864.031 1.706-.629 2.033-1.395a.58.58 0 0 0-.073-.585c-.457-.584-1.075-1.003-1.678-1.42a.593.593 0 0 0-.81.132l-.5.762a.19.19 0 0 1-.255.064c-.339-.194-.833-.524-1.188-.88A5.422 5.422 0 0 1 9 9.35a.19.19 0 0 1 .056-.242l.77-.572a.593.593 0 0 0 .1-.783c-.373-.547-.808-1.242-1.439-1.703a.58.58 0 0 0-.57-.062c-.766.328-1.43 1.17-1.398 2.036.02.568.243 2.177 1.928 3.863Z"/></svg>
