<svg xmlns="http://www.w3.org/2000/svg" width="21" height="20" viewBox="0 0 21 20" fill="none"><path d="M17.609 6.092c.106-.353 0-.612-.503-.612h-1.665c-.424 0-.617.224-.724.47 0 0-.846 2.065-2.046 3.404-.387.39-.564.512-.775.512-.106 0-.26-.123-.26-.476V6.092c0-.423-.121-.612-.474-.612H8.544c-.264 0-.424.196-.424.383 0 .401.6.494.662 1.624v2.45c0 .538-.097.636-.31.636-.564 0-1.937-2.073-2.751-4.445-.159-.46-.32-.647-.744-.647H3.313c-.476 0-.57.224-.57.47 0 .442.563 2.629 2.627 5.521 1.376 1.975 3.313 3.046 5.078 3.046 1.057 0 1.188-.238 1.188-.648v-1.493c0-.475.101-.57.436-.57.246 0 .67.124 1.658 1.075 1.128 1.129 1.315 1.635 1.949 1.635h1.664c.475 0 .713-.238.576-.707-.15-.467-.688-1.146-1.404-1.95-.388-.46-.97-.953-1.146-1.2-.247-.318-.175-.458 0-.74 0 0 2.029-2.856 2.24-3.828Z"/></svg>
