<svg xmlns="http://www.w3.org/2000/svg" width="24" height="24" viewBox="0 0 24 24" fill="none"><path fill="#7992B2" fill-rule="evenodd" d="M18.47 3.47a.75.75 0 0 1 1.06 0l3 3a.75.75 0 0 1-1.06 1.06l-1.72-1.72V14a.75.75 0 0 1-1.5 0V5.81l-1.72 1.72a.75.75 0 1 1-1.06-1.06l3-3ZM1.25 6A.75.75 0 0 1 2 5.25h4a.75.75 0 0 1 0 1.5H2A.75.75 0 0 1 1.25 6Zm0 4A.75.75 0 0 1 2 9.25h8a.75.75 0 0 1 0 1.5H2a.75.75 0 0 1-.75-.75Zm0 4a.75.75 0 0 1 .75-.75h12a.75.75 0 0 1 0 1.5H2a.75.75 0 0 1-.75-.75Zm0 4a.75.75 0 0 1 .75-.75h16a.75.75 0 0 1 0 1.5H2a.75.75 0 0 1-.75-.75Z" clip-rule="evenodd"/></svg>
