<svg xmlns="http://www.w3.org/2000/svg" width="48" height="48" viewBox="0 0 48 48" fill="none"><path fill="#0080FF" fill-rule="evenodd" d="M28.074 16.776 25.25 9.144c-.43-1.16-2.071-1.16-2.5 0l-2.825 7.632a5.334 5.334 0 0 1-3.15 3.151l-7.633 2.824c-1.16.43-1.16 2.072 0 2.501l7.632 2.824a5.334 5.334 0 0 1 3.151 3.151l2.824 7.632c.43 1.161 2.072 1.161 2.501 0l2.824-7.632a5.333 5.333 0 0 1 3.151-3.15l7.632-2.825c1.161-.43 1.161-2.071 0-2.5l-7.632-2.825a5.333 5.333 0 0 1-3.15-3.15Zm-.948-8.326c-1.074-2.902-5.179-2.902-6.253 0l-2.824 7.632a3.334 3.334 0 0 1-1.969 1.97l-7.632 2.823c-2.902 1.074-2.902 5.179 0 6.253l7.632 2.824a3.333 3.333 0 0 1 1.97 1.97l2.823 7.631c1.074 2.902 5.179 2.902 6.253 0l2.824-7.632a3.334 3.334 0 0 1 1.97-1.97l7.631-2.823c2.902-1.074 2.902-5.179 0-6.253l-7.632-2.824a3.334 3.334 0 0 1-1.97-1.969L27.127 8.45Z" clip-rule="evenodd"/></svg>
