<svg xmlns="http://www.w3.org/2000/svg" width="20" height="20" viewBox="0 0 20 20" fill="none"><g clip-path="url(#a)"><path fill="#fff" d="M8.88 2.771c.458-.929 1.782-.929 2.24 0l1.528 3.095c.182.369.534.624.941.683l3.415.497c1.025.149 1.435 1.409.693 2.132l-2.471 2.408c-.295.287-.43.701-.36 1.107l.584 3.4c.175 1.022-.897 1.8-1.814 1.319l-3.054-1.606a1.25 1.25 0 0 0-1.164 0l-3.054 1.606c-.917.482-1.989-.297-1.814-1.318l.584-3.401a1.25 1.25 0 0 0-.36-1.107l-2.47-2.408c-.743-.723-.333-1.983.692-2.132l3.415-.497c.407-.059.759-.314.94-.683L8.88 2.77Z"/></g><defs><clipPath id="a"><path fill="#fff" d="M0 .5h20v20H0z"/></clipPath></defs></svg>
