<svg xmlns="http://www.w3.org/2000/svg" viewBox="0 0 20 20" width="20" height="20">
<path d="M17.5,4.1h-3.3V3.3c0-0.7-0.3-1.3-0.8-1.8C13,1,12.4,0.8,11.7,0.8H8.3C7.6,0.8,7,1,6.5,1.5C6,2,5.7,2.6,5.7,3.3
	v0.8H2.5C2,4.1,1.6,4.5,1.6,5S2,5.9,2.5,5.9h0.8v10.8c0,0.7,0.3,1.3,0.8,1.8c0.5,0.5,1.1,0.8,1.8,0.8h8.3c0.7,0,1.3-0.3,1.8-0.8
	c0.5-0.5,0.8-1.1,0.8-1.8V5.9h0.8c0.5,0,0.9-0.4,0.9-0.9S18,4.1,17.5,4.1z M7.8,2.8c0.1-0.1,0.3-0.2,0.5-0.2h3.3
	c0.2,0,0.4,0.1,0.5,0.2c0.1,0.1,0.2,0.3,0.2,0.5v0.8H7.6V3.3C7.6,3.1,7.7,2.9,7.8,2.8z M14.7,17.2c-0.1,0.1-0.3,0.2-0.5,0.2H5.8
	c-0.2,0-0.4-0.1-0.5-0.2c-0.1-0.1-0.2-0.3-0.2-0.5V5.9h9.8v10.8C14.9,16.9,14.8,17.1,14.7,17.2z"/>
</svg>
