<svg width="24" height="24" viewBox="0 0 24 24" xmlns="http://www.w3.org/2000/svg">
<path d="M9.844 2.9998C9.64218 2.9998 9.44191 3.08396 9.28919 3.24483C9.13546 3.40675 9.044 3.63272 9.044 3.87446V6.25326H14.844V3.87446C14.844 3.63272 14.7525 3.40675 14.5988 3.24483C14.4461 3.08396 14.2458 2.9998 14.044 2.9998H9.844ZM16.044 6.25326V3.87446C16.044 3.33399 15.8405 2.80979 15.4691 2.41861C15.0967 2.02638 14.5848 1.7998 14.044 1.7998H9.844C9.30321 1.7998 8.7913 2.02638 8.41892 2.41861C8.04754 2.80979 7.844 3.33399 7.844 3.87446V6.25326H3.6C3.26863 6.25326 3 6.52189 3 6.85326C3 7.18463 3.26863 7.45326 3.6 7.45326H5.10214C5.10238 7.45599 5.10263 7.45872 5.1029 7.46145L6.5029 21.6587C6.53318 21.9658 6.79143 22.1998 7.1 22.1998H16.9C17.2086 22.1998 17.4668 21.9658 17.4971 21.6587L18.8971 7.46145C18.8974 7.45872 18.8976 7.45599 18.8979 7.45326H20.4C20.7314 7.45326 21 7.18463 21 6.85326C21 6.52189 20.7314 6.25326 20.4 6.25326H16.044ZM17.6921 7.45326H6.30791L7.64374 20.9998H16.3563L17.6921 7.45326Z"/>
</svg>
