<svg xmlns="http://www.w3.org/2000/svg" width="48" height="48" viewBox="0 0 48 48" fill="none">
  <path fill="#0080FF" fill-rule="evenodd" d="M24 3.5a9.43 9.43 0 0 0-6.727 2.834 9.718 9.718 0 0 0-2.773 6.809c0 2.549.995 4.999 2.773 6.809A9.43 9.43 0 0 0 24 22.786a9.43 9.43 0 0 0 6.727-2.834 9.718 9.718 0 0 0 2.773-6.81 9.718 9.718 0 0 0-2.773-6.808A9.43 9.43 0 0 0 24 3.5Zm-4.587 4.936A6.43 6.43 0 0 1 24 6.5a6.43 6.43 0 0 1 4.587 1.936 6.718 6.718 0 0 1 1.913 4.707c0 1.77-.691 3.463-1.913 4.706A6.43 6.43 0 0 1 24 19.787a6.43 6.43 0 0 1-4.587-1.937 6.718 6.718 0 0 1-1.913-4.706c0-1.77.691-3.463 1.913-4.707Z" clip-rule="evenodd"/>
  <path fill="#0080FF" d="M19.43 27.929c-6.973 0-12.93 5.07-12.93 11.678V43a1.5 1.5 0 0 0 3 0v-3.393c0-4.634 4.278-8.678 9.93-8.678h9.14c5.652 0 9.93 4.044 9.93 8.678V43a1.5 1.5 0 0 0 3 0v-3.393C41.5 33 35.543 27.93 28.57 27.93h-9.14Z"/>
</svg>
