<svg xmlns="http://www.w3.org/2000/svg" viewBox="0 0 20 20" width="20" height="20">
  <path d="M20,9.8c0-0.1,0-0.1,0-0.2c0,0,0,0,0,0c0,0,0,0,0,0c0,0,0,0,0,0h0l0,0l0,0l0,0l-0.3,0.1l0,0l0.3-0.1l0,0l0,0
    l-0.3,0.1l0,0l0.3-0.1l0,0c0,0,0,0,0-0.1l-0.3,0.2l0,0l0.3-0.2c0-0.1-0.1-0.1-0.1-0.2c-0.1-0.2-0.3-0.5-0.5-0.8
    c-0.4-0.7-1.1-1.5-1.9-2.4c-1.6-1.7-4.1-3.6-7.4-3.6c-3.3,0-5.8,1.9-7.4,3.6C1.8,7,1.2,7.8,0.7,8.5C0.5,8.8,0.4,9.1,0.2,9.3
    C0.2,9.4,0.1,9.4,0.1,9.5c0,0,0,0,0,0.1l0.3,0.1l0,0L0.1,9.6l0,0l0.3,0.1l0,0L0.1,9.6l0,0l0,0l0.3,0.1h0L0.1,9.6l0,0l0,0l0.3,0.1
    l0,0L0.1,9.6l0,0l0,0c0,0,0,0,0,0h0c0,0,0,0,0,0c0,0,0,0,0,0c0,0,0,0,0,0c0,0,0,0.1,0,0.2c0,0.1,0,0.3,0,0.4c0,0,0,0,0,0
    c0,0.1,0.1,0.2,0.1,0.2c0,0,0,0,0,0h0l0,0h0l0,0l0,0l0,0l0,0l0.2,0.4l0,0c0.1,0.2,0.2,0.4,0.4,0.7c0.4,0.7,1.1,1.5,1.9,2.4
    c1.6,1.7,4.1,3.6,7.4,3.6c3.3,0,5.8-1.9,7.4-3.6c0.8-0.9,1.5-1.7,1.9-2.4c0.2-0.3,0.4-0.6,0.5-0.8c0.1-0.1,0.1-0.2,0.1-0.2l0,0
    c0,0,0,0,0-0.1l0,0l-0.3-0.1c0,0,0,0,0,0l0.3,0.1l0,0l0,0l-0.3-0.1h0l0.3,0.1l0,0l0,0l0,0h0c0,0,0,0,0,0c0,0,0,0,0,0c0,0,0,0,0,0
    c0,0,0-0.1,0-0.2C20,10.1,20,9.9,20,9.8z M10,15.7c-2.5,0-4.6-1.4-6.1-3c-0.7-0.8-1.3-1.6-1.7-2.1C2.1,10.3,2,10.2,1.9,10L2,10
    l-0.1,0C2,9.8,2.1,9.7,2.3,9.5c0.4-0.6,0.9-1.4,1.7-2.1c1.5-1.6,3.5-3,6.1-3c2.5,0,4.6,1.4,6.1,3c0.7,0.8,1.3,1.6,1.7,2.1
    c0.1,0.2,0.2,0.4,0.3,0.5L18,10l0.1,0c-0.1,0.1-0.2,0.3-0.3,0.5c-0.4,0.6-0.9,1.4-1.7,2.1C14.6,14.2,12.5,15.7,10,15.7z"/>
  <path d="M10,6.6c-1.9,0-3.4,1.5-3.4,3.4s1.5,3.4,3.4,3.4c1.9,0,3.4-1.5,3.4-3.4S11.9,6.6,10,6.6z M10,11.6
    c-0.9,0-1.6-0.7-1.6-1.6c0-0.9,0.7-1.6,1.6-1.6c0.9,0,1.6,0.7,1.6,1.6C11.6,10.9,10.9,11.6,10,11.6z"/>
</svg>
