<svg xmlns="http://www.w3.org/2000/svg" viewBox="0 0 20 20" width="20" height="20">
<path d="M17.2,8.8c-0.1-1-0.4-1.9-0.9-2.7c-0.5-0.8-1.1-1.5-1.9-2.1s-1.7-0.9-2.6-1.1l0,0l0,0l0,0.2l0,0l0,0l0-0.2
	l-0.4-0.1l0,0c0,0,0,0,0,0l0,0v0c-1.2-0.2-2.5,0-3.6,0.5C6.7,3.8,5.7,4.6,5,5.7l0,0c0,0,0,0,0,0c0,0,0,0,0,0l0,0
	C4.3,6.6,3.9,7.8,3.8,9c-0.1,1.2,0.2,2.4,0.7,3.5l0,0c0,0.1,0.1,0.2,0.1,0.2c0,0.1,0,0.2,0,0.3l0.2,0.1l0,0L4.6,13l0,0
	C4.3,14,4,15,3.8,16l-0.1,0.4l0.4-0.1l0.3-0.1c0.9-0.2,1.8-0.5,2.8-0.7c0.1,0,0.3,0,0.4,0l0,0c0.9,0.4,1.8,0.6,2.7,0.7
	c1,0,1.9-0.2,2.8-0.5c0.9-0.4,1.7-0.9,2.3-1.6c0.7-0.7,1.1-1.5,1.4-2.4C17.2,10.7,17.3,9.7,17.2,8.8z M7.3,8.5L7.3,8.5L7.3,8.5
	L7.3,8.5z M8.1,9.9L8.1,9.9L8.1,9.9L8.1,9.9L8.1,9.9z M8.3,9.8L8.3,9.8L8.3,9.8C8,9.4,7.7,8.9,7.6,8.4c-0.1-0.3-0.1-0.5,0-0.8
	C7.6,7.4,7.7,7.2,7.9,7l0,0l0,0L7.7,6.8l0,0l0.2,0.2C8,6.9,8.1,6.8,8.2,6.7c0.1,0,0.2,0,0.3,0l0.1-0.2l0,0l0,0L8.5,6.7l0,0
	c0,0,0,0,0,0.1c0,0,0,0.1,0.1,0.1c0,0,0,0.1,0.1,0.1C8.8,7.3,9,7.6,9.1,7.8l0.2-0.1l0,0L9.1,7.8l0,0l0,0c0.1,0.1,0.1,0.2,0.1,0.3
	c0,0.1-0.1,0.2-0.2,0.3l0,0l0,0l0.2,0.2h0L9,8.4C8.8,8.6,8.7,8.8,8.7,9c0,0.2,0.1,0.4,0.2,0.6l0,0c0,0,0,0,0,0c0,0,0,0,0,0l0,0
	c0.5,0.7,1.2,1.3,2,1.7l0.1-0.2l0,0l0,0L11,11.2l0,0c0.1,0.1,0.3,0.1,0.4,0.1c0.2,0,0.3-0.1,0.4-0.3l0,0c0,0,0-0.1,0.1-0.1
	c0,0,0.1-0.1,0.1-0.1l0,0l-0.2-0.2l0,0v0l0.2,0.2c0.1-0.1,0.2-0.2,0.2-0.3c0,0,0,0,0,0c0,0,0,0,0,0c0.1,0,0.2,0.1,0.3,0.1l0.1-0.2
	l0,0l-0.1,0.2l0,0c0.2,0.1,0.4,0.2,0.6,0.3l0.1-0.2l0,0l-0.1,0.2l0,0c0.1,0,0.1,0.1,0.2,0.1c0.1,0,0.1,0.1,0.1,0.1
	c0,0,0.1,0,0.1,0.1c0,0,0,0,0,0c0,0.1,0,0.3,0,0.4c0,0.1-0.1,0.2-0.2,0.3l0,0l0,0l0.2,0.2l0,0l-0.2-0.2c-0.2,0.2-0.5,0.3-0.8,0.4
	c-0.3,0.1-0.6,0-0.9-0.1l0,0.1l0-0.1l0,0l-0.1,0.2l0,0h0l0.1-0.2C10.3,11.9,9.1,11,8.3,9.8z M9,6.9L9,6.9L9,6.9L9,6.9z M9.1,9.4
	L9.1,9.4L9.1,9.4L9.1,9.4z M11.6,10.9L11.6,10.9L11.6,10.9L11.6,10.9z M13.8,11.1L13.8,11.1L13.8,11.1L13.8,11.1z M7.1,15.2
	L7.1,15.2L7.1,15.2L7.1,15.2z M5.2,5.8L5.2,5.8L5.2,5.8L5.2,5.8z M7.7,15.3L7.7,15.3L7.7,15.3L7.7,15.3z"/>
</svg>
