<?xml version="1.0" standalone="no"?>
<!DOCTYPE svg PUBLIC "-//W3C//DTD SVG 20010904//EN"
 "http://www.w3.org/TR/2001/REC-SVG-20010904/DTD/svg10.dtd">
<svg version="1.0" xmlns="http://www.w3.org/2000/svg"
 width="700.000000pt" height="700.000000pt" viewBox="0 0 700.000000 700.000000"
 preserveAspectRatio="xMidYMid meet">
<metadata>
Created by potrace 1.14, written by Peter Selinger 2001-2017
</metadata>
<g transform="translate(0.000000,700.000000) scale(0.100000,-0.100000)"
fill="#000000" stroke="none">
<path d="M3850 5866 c-217 -46 -410 -170 -523 -336 -16 -25 -32 -47 -33 -49
-2 -2 -37 11 -78 28 -142 59 -290 80 -432 62 -356 -47 -640 -308 -710 -654
-20 -97 -15 -281 10 -372 20 -72 74 -189 115 -248 l29 -43 -92 -95 c-135 -139
-216 -279 -268 -467 -21 -72 -22 -106 -28 -526 l-5 -449 -65 -39 c-254 -151
-350 -460 -225 -721 l24 -51 -68 -67 c-76 -75 -129 -150 -171 -242 -47 -105
-61 -172 -67 -329 l-6 -148 100 0 100 0 5 133 c8 192 49 300 159 421 75 82 74
82 165 35 185 -93 388 -87 555 16 l59 36 40 -31 c81 -64 148 -164 185 -274 22
-64 25 -92 25 -205 l0 -131 109 0 109 0 4 427 c4 411 6 431 27 498 33 101 76
177 140 247 l56 61 64 -41 c220 -143 513 -144 735 -4 l40 25 37 -44 c54 -63
106 -153 132 -229 21 -62 22 -82 25 -502 l3 -438 113 0 114 0 5 282 c5 307 9
333 68 450 30 60 147 193 179 203 10 3 47 -10 87 -30 162 -82 337 -85 502 -9
54 25 78 31 91 24 36 -19 132 -136 160 -195 54 -111 60 -153 60 -452 l0 -273
115 0 115 0 0 269 c0 286 -8 361 -50 476 -36 97 -98 193 -176 275 l-74 77 30
59 c118 238 52 534 -156 695 l-54 41 0 187 c0 102 -5 227 -10 276 -32 281
-161 546 -365 750 -83 83 -218 184 -287 215 l-27 13 57 67 c79 94 127 179 164
290 31 90 32 103 32 250 1 149 -1 158 -32 250 -43 124 -98 215 -186 307 -111
118 -245 198 -396 238 -88 22 -277 28 -360 11z m305 -226 c167 -43 311 -159
383 -312 47 -98 62 -161 62 -265 0 -261 -187 -500 -445 -568 -124 -33 -296
-16 -413 41 l-52 25 7 42 c5 23 8 101 8 172 0 108 -4 143 -24 205 -37 121
-101 236 -178 321 l-33 36 38 59 c134 206 401 307 647 244z m-1145 -304 c184
-40 333 -158 414 -330 183 -385 -100 -834 -529 -839 -108 -1 -176 14 -270 59
-208 99 -335 300 -335 532 0 163 57 300 175 417 143 143 347 203 545 161z
m719 -1050 c136 -49 349 -59 476 -23 28 8 71 20 97 28 l47 13 103 -51 c284
-142 486 -403 549 -708 14 -68 19 -134 19 -272 l0 -183 -79 0 c-249 0 -473
-178 -536 -425 -30 -120 -15 -275 38 -383 l24 -47 -69 -64 c-38 -35 -70 -62
-71 -60 -2 2 -16 37 -31 77 -30 78 -100 190 -163 261 l-40 45 33 55 c97 165
115 374 50 563 -36 102 -81 172 -168 259 -76 76 -78 79 -78 127 0 108 -44 271
-106 395 -53 106 -110 185 -201 276 -45 46 -80 88 -77 93 7 11 83 46 103 47 7
1 43 -10 80 -23z m-1195 -272 c253 -117 579 -94 803 56 l31 21 67 -63 c80 -74
141 -158 188 -256 33 -68 75 -208 65 -217 -2 -3 -33 0 -69 6 -312 52 -643
-156 -745 -467 -26 -78 -29 -103 -29 -209 0 -132 14 -193 67 -302 l31 -63 -60
-63 c-148 -159 -232 -361 -233 -559 0 -43 -3 -78 -6 -78 -3 0 -30 21 -59 48
l-52 47 23 47 c55 109 67 243 34 372 -26 102 -69 176 -149 257 -90 90 -236
159 -338 159 l-33 0 0 379 c0 403 5 464 50 586 40 106 99 196 191 288 l88 89
30 -22 c17 -11 64 -37 105 -56z m1104 -679 c213 -50 353 -229 354 -450 0 -136
-44 -240 -143 -335 -256 -245 -684 -119 -774 227 -86 331 224 638 563 558z
m1485 -483 c230 -114 272 -417 82 -591 -74 -67 -146 -94 -250 -95 -66 0 -90 5
-138 27 -115 52 -179 126 -212 241 -32 110 -2 242 75 329 42 49 80 75 149 104
47 20 69 23 142 20 73 -3 97 -8 152 -35z m-2998 -327 c90 -15 184 -89 230
-182 25 -50 29 -70 30 -143 0 -71 -4 -94 -26 -140 -33 -70 -95 -132 -167 -167
-77 -38 -201 -40 -276 -5 -75 34 -129 84 -167 154 -32 59 -34 69 -34 153 0 71
5 100 22 137 27 59 95 134 148 161 48 25 140 47 175 42 14 -2 43 -7 65 -10z"/>
</g>
</svg>
